<?xml version="1.0" encoding="UTF-8"?>
<svg width="512px" height="512px" viewBox="0 0 512 512" version="1.1" xmlns="http://www.w3.org/2000/svg" xmlns:xlink="http://www.w3.org/1999/xlink">
    <!-- Generator: Sketch 62 (91390) - https://sketch.com -->
    <title>Artboard</title>
    <desc>Created with Sketch.</desc>
    <defs>
        <path d="M417.514488,291.314742 L357.843507,490.683261 C326.580766,504.393829 292.050662,512 255.749964,512 C238.824072,512 222.283119,510.346366 206.278834,507.191335 L417.514488,291.314742 Z M141.625599,358.337403 L200.124206,505.898368 C130.563248,490.379524 71.6968058,446.369017 36.3174441,386.702198 L141.625599,358.337403 Z M89.0450374,185.785888 L8.00781017,317.475893 C3.16978235,297.782568 0.603352291,277.191997 0.603352291,256 C0.603352291,248.238835 0.947574945,240.558337 1.62153787,232.973036 L89.0450374,185.785888 Z" id="path-1"></path>
    </defs>
    <g id="Artboard" stroke="none" stroke-width="1" fill="none" fill-rule="evenodd">
        <g id="spotify-2">
            <g id="Group">
                <path d="M255.396575,0 C114.673522,0 0.603352291,114.4517 0.603352291,255.645429 C0.603352291,396.839159 114.673522,511.290859 255.396575,511.290859 C396.119628,511.290859 510.189798,396.839159 510.189798,255.645429 C510.189798,114.469144 396.119628,0.0174442463 255.396575,0 Z" id="Shape" fill="#2EBD59" fill-rule="nonzero"></path>
                <g id="Oval" transform="translate(1.408810, 0.000000)"></g>
                <g id="Oval" transform="translate(0.000000, 185.085873)"></g>
                <path d="M286.757515,110.814965 L271.331758,300.318932 L417.514488,291.314742 L350.620325,493.718649 C321.293347,505.511834 289.276826,512 255.749964,512 C114.836381,512 0.603352291,397.384896 0.603352291,256 C0.603352291,248.238835 0.947574945,240.558337 1.62153787,232.973036 L89.0450374,185.785888 L62.6455296,300.318932 L286.757515,110.814965 Z" id="Combined-Shape" fill="#FFFFFF"></path>
                <mask id="mask-2" fill="white">
                    <use xlink:href="#path-1"></use>
                </mask>
                <use id="Combined-Shape" fill="#C5C5C5" xlink:href="#path-1"></use>
            </g>
        </g>
    </g>
</svg>