<?xml version="1.0" encoding="UTF-8"?>
<svg width="721px" height="721px" viewBox="0 0 721 721" version="1.1" xmlns="http://www.w3.org/2000/svg" xmlns:xlink="http://www.w3.org/1999/xlink">
    <!-- Generator: Sketch 62 (91390) - https://sketch.com -->
    <title>Artboard</title>
    <desc>Created with Sketch.</desc>
    <g id="Artboard" stroke="none" stroke-width="1" fill="none" fill-rule="evenodd">
        <g id="spotify-2" fill="#2EBD59" fill-rule="nonzero">
            <path d="M360.5,0 C161.39478,0 0,161.39478 0,360.5 C0,559.60522 161.39478,721 360.5,721 C559.60522,721 721,559.60522 721,360.5 C721,161.419379 559.60522,0.0245991129 360.5,0 Z" id="Shape"></path>
        </g>
        <path d="M297.179846,119.75 C270.650442,119.769576 249.17986,141.263866 249.199454,167.75 C249.17986,194.236134 270.67005,215.730424 297.199454,215.75 L345.199454,215.75 L345.199454,167.769576 C345.219049,141.283442 323.728859,119.789152 297.179846,119.75 C297.199454,119.75 297.199454,119.75 297.179846,119.75 M297.19105,247.75 L169.207898,247.75 C142.673849,247.769572 121.179896,269.25948 121.199454,295.740214 C121.160285,322.220948 142.654238,343.710856 169.188287,343.75 L297.19105,343.75 C323.725099,343.730428 345.219052,322.24052 345.199454,295.759786 C345.219052,269.25948 323.725099,247.769572 297.19105,247.75 Z" id="Shape" fill="#FFFFFF" fill-rule="nonzero"></path>
        <path d="M601.199454,295.740214 C601.219049,269.25948 579.728859,247.769572 553.199454,247.75 C526.67005,247.769572 505.17986,269.25948 505.199454,295.740214 L505.199454,343.75 L553.199454,343.75 C579.728859,343.730428 601.219049,322.24052 601.199454,295.740214 Z M473.199454,295.740214 L473.199454,167.740214 C473.219053,141.279052 451.744093,119.789144 425.20928,119.75 C398.674467,119.769572 377.179896,141.25948 377.199454,167.740214 L377.199454,295.740214 C377.160284,322.220948 398.654855,343.710856 425.189668,343.75 C451.724481,343.730428 473.219053,322.24052 473.199454,295.740214 Z" id="Shape" fill="#FFFFFF" fill-rule="nonzero"></path>
        <path d="M425.199454,601.75 C451.728859,601.730424 473.219049,580.236134 473.199454,553.75 C473.219049,527.263866 451.728859,505.769576 425.199454,505.75 L377.199454,505.75 L377.199454,553.75 C377.17986,580.216558 398.67005,601.710848 425.199454,601.75 Z M425.188247,473.75 L553.19101,473.75 C579.725059,473.730428 601.219012,452.24052 601.199454,425.759786 C601.238623,399.279052 579.744671,377.789144 553.210621,377.75 L425.207858,377.75 C398.673809,377.769572 377.179856,399.25948 377.199454,425.740214 C377.179856,452.24052 398.654198,473.730428 425.188247,473.75 L425.188247,473.75 Z" id="Shape" fill="#FFFFFF" fill-rule="nonzero"></path>
        <path d="M121.199454,425.75 C121.17986,452.236134 142.67005,473.730424 169.199454,473.75 C195.728859,473.730424 217.219049,452.236134 217.199454,425.75 L217.199454,377.75 L169.199454,377.75 C142.67005,377.769576 121.17986,399.263866 121.199454,425.75 Z M249.199454,425.724834 L249.199454,553.736019 C249.160284,580.219067 270.654846,601.710853 297.189648,601.75 C323.72445,601.730426 345.219012,580.23864 345.199454,553.755592 L345.199454,425.763981 C345.238624,399.280933 323.744062,377.789147 297.20926,377.75 C270.654846,377.75 249.179896,399.241786 249.199454,425.724834 C249.199454,425.724834 249.199454,425.744408 249.199454,425.724834" id="Shape" fill="#FFFFFF" fill-rule="nonzero"></path>
    </g>
</svg>