<?xml version="1.0" encoding="UTF-8"?>
<svg width="512px" height="512px" viewBox="0 0 512 512" version="1.1" xmlns="http://www.w3.org/2000/svg" xmlns:xlink="http://www.w3.org/1999/xlink">
    <!-- Generator: Sketch 62 (91390) - https://sketch.com -->
    <title>Logo</title>
    <desc>Created with Sketch.</desc>
    <defs>
        <path d="M96.617417,302.026793 C102.345657,302.026793 107.937827,301.784364 113.379448,301.30567 L78.0583404,322.218734 C44.0307983,342.36705 1.22927302,318.342498 0.0289399216,279.079486 C30.0309677,294.421953 62.7106771,302.026793 96.617417,302.026793 Z M81.395754,151.016648 C145.228534,165.821564 158.977133,179.145989 158.977133,203.820849 L158.977133,204.807844 C158.977133,230.469698 135.408106,248.235598 98.0904811,248.235598 C60.3127694,248.235598 29.6087553,235.201763 0.00176308361,211.960828 L0,119.144764 C19.3365454,133.330751 46.7973461,142.615152 81.395754,151.016648 Z M83.3598396,0.5 C104.310085,0.5 174.358972,35.3271893 293.506499,104.981568 C327.15792,124.907176 327.494435,173.535825 294.516042,194.035494 L293.506499,194.648028 L209.258624,244.537912 C215.821721,231.31004 219.372763,216.016183 219.372763,198.885877 L219.372763,197.898883 C219.372763,140.653207 182.055138,114.497855 109.383973,96.7319554 L105.467111,95.7890283 C43.116652,80.6167804 27.6963581,68.8062927 27.3881504,43.2423053 L27.3834017,41.4602682 C27.3834017,18.7593967 48.0062999,0.5 83.3598396,0.5 Z" id="path-1"></path>
        <linearGradient x1="20.5454892%" y1="31.617128%" x2="89.0748329%" y2="65.2178791%" id="linearGradient-3">
            <stop stop-color="#D20052" offset="0%"></stop>
            <stop stop-color="#FFAE47" offset="100%"></stop>
            <stop stop-color="#FFAE47" offset="100%"></stop>
        </linearGradient>
    </defs>
    <g id="Logo" stroke="none" stroke-width="1" fill="none" fill-rule="evenodd">
        <rect fill="#1A1B27" x="0" y="0" width="512" height="512"></rect>
        <g id="Rectangle" transform="translate(97.000000, 90.500000)">
            <mask id="mask-2" fill="white">
                <use xlink:href="#path-1"></use>
            </mask>
            <use id="Mask" fill="#979797" fill-rule="nonzero" xlink:href="#path-1"></use>
            <rect stroke="#979797" fill="url(#linearGradient-3)" mask="url(#mask-2)" x="-149.5" y="-62" width="552" height="416"></rect>
            <path d="M15.3367643,116.210905 C-44.8676086,98.5336302 -49.9726063,111.250263 0.0217711942,154.360802 C31.421019,175.13577 60.1357844,181.625904 86.8721086,187.188469 C115.856037,193.218655 158.921192,208.678414 158.59344,233.860555 C158.245751,260.574527 166.714604,250.727876 184,204.320602 L138.955152,154.360802 L15.3367643,116.210905 Z" id="Path-2" fill-opacity="0.8" fill="#841431" mask="url(#mask-2)"></path>
        </g>
    </g>
</svg>